<?xml version="1.0" encoding="utf-8"?><svg width="auto" height="5920" style="overflow:visible " version="1.1" xmlns="http://www.w3.org/2000/svg"><rect x="20" y="20" width="200" height="40" style="fill:white;stroke:black;stroke-width:1" /><text x="30" y="30" font-size="10" style="fill:blue">rutas</text><text x="30" y="40" font-size="8" style="fill:black">xmlns:xsi: http://www.w3.org/2001/XMLSchema</text><text x="30" y="50" font-size="8" style="fill:black">xmlns: http://tempuri.org/rutas</text><rect x="240" y="20" width="200" height="40" style="fill:white;stroke:black;stroke-width:1" /><text x="250" y="30" font-size="10" style="fill:blue">ruta</text><path d="M220 40 C240 40 220 40 240 40" style="fill:transparent;stroke:black" /><text x="250" y="40" font-size="8" style="fill:black">nombre: Ruta de Bali</text><text x="250" y="50" font-size="8" style="fill:black">tipo: Aventura</text><text x="250" y="60" font-size="8" style="fill:black">duracion: P7D</text><rect x="460" y="20" width="200" height="40" style="fill:white;stroke:black;stroke-width:1" /><text x="470" y="30" font-size="10" style="fill:blue">transporte</text><path d="M440 40 C460 40 440 40 460 40" style="fill:transparent;stroke:black" /><text x="470" y="40" font-size="8" style="fill:black">medio: Avión</text><rect x="460" y="70" width="200" height="40" style="fill:white;stroke:black;stroke-width:1" /><text x="470" y="80" font-size="10" style="fill:blue">inicio</text><path d="M440 40 C460 40 440 90 460 90" style="fill:transparent;stroke:black" /><text x="470" y="90" font-size="8" style="fill:black">fecha: 2023-12-01</text><text x="470" y="100" font-size="8" style="fill:black">hora: 08:00:00</text><rect x="680" y="70" width="200" height="40" style="fill:white;stroke:black;stroke-width:1" /><text x="690" y="80" font-size="10" style="fill:blue">lugar</text><path d="M660 90 C680 90 660 90 680 90" style="fill:transparent;stroke:black" /><rect x="746" y="70" width="137" height="40" style="fill:green;stroke:black;stroke-width:1" /><text x="756" y="80" font-size="8" style="fill:white">Aeropuerto Internacional Ngurah Rai</text><rect x="680" y="120" width="200" height="40" style="fill:white;stroke:black;stroke-width:1" /><text x="690" y="130" font-size="10" style="fill:blue">direccion</text><path d="M660 90 C680 90 660 140 680 140" style="fill:transparent;stroke:black" /><text x="690" y="140" font-size="8" style="fill:black">dir: Denpasar, Bali, Indonesia</text><rect x="900" y="120" width="200" height="40" style="fill:white;stroke:black;stroke-width:1" /><text x="910" y="130" font-size="10" style="fill:blue">coordenadas</text><path d="M880 140 C900 140 880 140 900 140" style="fill:transparent;stroke:black" /><rect x="966" y="120" width="137" height="40" style="fill:green;stroke:black;stroke-width:1" /><text x="976" y="130" font-size="8" style="fill:white">-8.671336, 115.213562</text><rect x="460" y="270" width="200" height="40" style="fill:white;stroke:black;stroke-width:1" /><text x="470" y="280" font-size="10" style="fill:blue">agencia</text><path d="M440 40 C460 40 440 290 460 290" style="fill:transparent;stroke:black" /><rect x="526" y="270" width="137" height="40" style="fill:green;stroke:black;stroke-width:1" /><text x="536" y="280" font-size="8" style="fill:white">Bali Adventures</text><rect x="460" y="320" width="200" height="40" style="fill:white;stroke:black;stroke-width:1" /><text x="470" y="330" font-size="10" style="fill:blue">descripcion</text><path d="M440 40 C460 40 440 340 460 340" style="fill:transparent;stroke:black" /><rect x="526" y="320" width="137" height="40" style="fill:green;stroke:black;stroke-width:1" /><text x="536" y="330" font-size="8" style="fill:white">Una emocionante aventura por la hermosa isla de Bali, llena de playas, templos y actividades emocionantes.</text><rect x="460" y="370" width="200" height="40" style="fill:white;stroke:black;stroke-width:1" /><text x="470" y="380" font-size="10" style="fill:blue">personas_adecuadas</text><path d="M440 40 C460 40 440 390 460 390" style="fill:transparent;stroke:black" /><rect x="680" y="370" width="200" height="40" style="fill:white;stroke:black;stroke-width:1" /><text x="690" y="380" font-size="10" style="fill:blue">persona</text><path d="M660 390 C680 390 660 390 680 390" style="fill:transparent;stroke:black" /><rect x="746" y="370" width="137" height="40" style="fill:green;stroke:black;stroke-width:1" /><text x="756" y="380" font-size="8" style="fill:white">familias con niños</text><rect x="680" y="420" width="200" height="40" style="fill:white;stroke:black;stroke-width:1" /><text x="690" y="430" font-size="10" style="fill:blue">persona</text><path d="M660 390 C680 390 660 440 680 440" style="fill:transparent;stroke:black" /><rect x="746" y="420" width="137" height="40" style="fill:green;stroke:black;stroke-width:1" /><text x="756" y="430" font-size="8" style="fill:white">personas mayores</text><rect x="460" y="520" width="200" height="40" style="fill:white;stroke:black;stroke-width:1" /><text x="470" y="530" font-size="10" style="fill:blue">referencias</text><path d="M440 40 C460 40 440 540 460 540" style="fill:transparent;stroke:black" /><rect x="680" y="520" width="200" height="40" style="fill:white;stroke:black;stroke-width:1" /><text x="690" y="530" font-size="10" style="fill:blue">referencia</text><path d="M660 540 C680 540 660 540 680 540" style="fill:transparent;stroke:black" /><text x="690" y="540" font-size="8" style="fill:black">link: https://www.visitbali.id</text><rect x="680" y="570" width="200" height="40" style="fill:white;stroke:black;stroke-width:1" /><text x="690" y="580" font-size="10" style="fill:blue">referencia</text><path d="M660 540 C680 540 660 590 680 590" style="fill:transparent;stroke:black" /><text x="690" y="590" font-size="8" style="fill:black">link: https://www.baliadventures.com</text><rect x="680" y="620" width="200" height="40" style="fill:white;stroke:black;stroke-width:1" /><text x="690" y="630" font-size="10" style="fill:blue">referencia</text><path d="M660 540 C680 540 660 640 680 640" style="fill:transparent;stroke:black" /><text x="690" y="640" font-size="8" style="fill:black">link: https://es.wikipedia.org/wiki/Bali</text><rect x="460" y="720" width="200" height="40" style="fill:white;stroke:black;stroke-width:1" /><text x="470" y="730" font-size="10" style="fill:blue">recomendacion</text><path d="M440 40 C460 40 440 740 460 740" style="fill:transparent;stroke:black" /><rect x="526" y="720" width="137" height="40" style="fill:green;stroke:black;stroke-width:1" /><text x="536" y="730" font-size="8" style="fill:white">8</text><rect x="460" y="770" width="200" height="40" style="fill:white;stroke:black;stroke-width:1" /><text x="470" y="780" font-size="10" style="fill:blue">hitos</text><path d="M440 40 C460 40 440 790 460 790" style="fill:transparent;stroke:black" /><rect x="680" y="770" width="200" height="40" style="fill:white;stroke:black;stroke-width:1" /><text x="690" y="780" font-size="10" style="fill:blue">hito</text><path d="M660 790 C680 790 660 790 680 790" style="fill:transparent;stroke:black" /><text x="690" y="790" font-size="8" style="fill:black">nombre: Playa de Kuta</text><rect x="900" y="770" width="200" height="40" style="fill:white;stroke:black;stroke-width:1" /><text x="910" y="780" font-size="10" style="fill:blue">coordenadas</text><path d="M880 790 C900 790 880 790 900 790" style="fill:transparent;stroke:black" /><rect x="966" y="770" width="137" height="40" style="fill:green;stroke:black;stroke-width:1" /><text x="976" y="780" font-size="8" style="fill:white">-8.725760, 115.175731</text><rect x="900" y="820" width="200" height="40" style="fill:white;stroke:black;stroke-width:1" /><text x="910" y="830" font-size="10" style="fill:blue">distancia</text><path d="M880 790 C900 790 880 840 900 840" style="fill:transparent;stroke:black" /><rect x="966" y="820" width="137" height="40" style="fill:green;stroke:black;stroke-width:1" /><text x="976" y="830" font-size="8" style="fill:white">10.0</text><rect x="900" y="870" width="200" height="40" style="fill:white;stroke:black;stroke-width:1" /><text x="910" y="880" font-size="10" style="fill:blue">fotos</text><path d="M880 790 C900 790 880 890 900 890" style="fill:transparent;stroke:black" /><rect x="1120" y="870" width="200" height="40" style="fill:white;stroke:black;stroke-width:1" /><text x="1130" y="880" font-size="10" style="fill:blue">foto</text><path d="M1100 890 C1120 890 1100 890 1120 890" style="fill:transparent;stroke:black" /><text x="1130" y="890" font-size="8" style="fill:black">ref: res/fotos/kuta-beach.jpg</text><rect x="680" y="1020" width="200" height="40" style="fill:white;stroke:black;stroke-width:1" /><text x="690" y="1030" font-size="10" style="fill:blue">hito</text><path d="M660 790 C680 790 660 1040 680 1040" style="fill:transparent;stroke:black" /><text x="690" y="1040" font-size="8" style="fill:black">nombre: Templo de Uluwatu</text><rect x="900" y="1020" width="200" height="40" style="fill:white;stroke:black;stroke-width:1" /><text x="910" y="1030" font-size="10" style="fill:blue">coordenadas</text><path d="M880 1040 C900 1040 880 1040 900 1040" style="fill:transparent;stroke:black" /><rect x="966" y="1020" width="137" height="40" style="fill:green;stroke:black;stroke-width:1" /><text x="976" y="1030" font-size="8" style="fill:white">-8.830839, 115.086507</text><rect x="900" y="1070" width="200" height="40" style="fill:white;stroke:black;stroke-width:1" /><text x="910" y="1080" font-size="10" style="fill:blue">distancia</text><path d="M880 1040 C900 1040 880 1090 900 1090" style="fill:transparent;stroke:black" /><rect x="966" y="1070" width="137" height="40" style="fill:green;stroke:black;stroke-width:1" /><text x="976" y="1080" font-size="8" style="fill:white">25.0</text><rect x="900" y="1120" width="200" height="40" style="fill:white;stroke:black;stroke-width:1" /><text x="910" y="1130" font-size="10" style="fill:blue">fotos</text><path d="M880 1040 C900 1040 880 1140 900 1140" style="fill:transparent;stroke:black" /><rect x="1120" y="1120" width="200" height="40" style="fill:white;stroke:black;stroke-width:1" /><text x="1130" y="1130" font-size="10" style="fill:blue">foto</text><path d="M1100 1140 C1120 1140 1100 1140 1120 1140" style="fill:transparent;stroke:black" /><text x="1130" y="1140" font-size="8" style="fill:black">ref: res/fotos/templo-uluwatu.jpg</text><rect x="680" y="1270" width="200" height="40" style="fill:white;stroke:black;stroke-width:1" /><text x="690" y="1280" font-size="10" style="fill:blue">hito</text><path d="M660 790 C680 790 660 1290 680 1290" style="fill:transparent;stroke:black" /><text x="690" y="1290" font-size="8" style="fill:black">nombre: Reserva Natural Ubud</text><rect x="900" y="1270" width="200" height="40" style="fill:white;stroke:black;stroke-width:1" /><text x="910" y="1280" font-size="10" style="fill:blue">coordenadas</text><path d="M880 1290 C900 1290 880 1290 900 1290" style="fill:transparent;stroke:black" /><rect x="966" y="1270" width="137" height="40" style="fill:green;stroke:black;stroke-width:1" /><text x="976" y="1280" font-size="8" style="fill:white">-8.511242, 115.300797</text><rect x="900" y="1320" width="200" height="40" style="fill:white;stroke:black;stroke-width:1" /><text x="910" y="1330" font-size="10" style="fill:blue">distancia</text><path d="M880 1290 C900 1290 880 1340 900 1340" style="fill:transparent;stroke:black" /><rect x="966" y="1320" width="137" height="40" style="fill:green;stroke:black;stroke-width:1" /><text x="976" y="1330" font-size="8" style="fill:white">40.0</text><rect x="900" y="1370" width="200" height="40" style="fill:white;stroke:black;stroke-width:1" /><text x="910" y="1380" font-size="10" style="fill:blue">fotos</text><path d="M880 1290 C900 1290 880 1390 900 1390" style="fill:transparent;stroke:black" /><rect x="1120" y="1370" width="200" height="40" style="fill:white;stroke:black;stroke-width:1" /><text x="1130" y="1380" font-size="10" style="fill:blue">foto</text><path d="M1100 1390 C1120 1390 1100 1390 1120 1390" style="fill:transparent;stroke:black" /><text x="1130" y="1390" font-size="8" style="fill:black">ref: res/fotos/ubud.jpg</text><rect x="240" y="1620" width="200" height="40" style="fill:white;stroke:black;stroke-width:1" /><text x="250" y="1630" font-size="10" style="fill:blue">ruta</text><path d="M220 40 C240 40 220 1640 240 1640" style="fill:transparent;stroke:black" /><text x="250" y="1640" font-size="8" style="fill:black">nombre: Aventura en Java</text><text x="250" y="1650" font-size="8" style="fill:black">tipo: Aventura</text><text x="250" y="1660" font-size="8" style="fill:black">duracion: P7D</text><rect x="460" y="1620" width="200" height="40" style="fill:white;stroke:black;stroke-width:1" /><text x="470" y="1630" font-size="10" style="fill:blue">transporte</text><path d="M440 1640 C460 1640 440 1640 460 1640" style="fill:transparent;stroke:black" /><text x="470" y="1640" font-size="8" style="fill:black">medio: Tren</text><rect x="526" y="1620" width="137" height="40" style="fill:green;stroke:black;stroke-width:1" /><text x="536" y="1630" font-size="8" style="fill:white">Viaje en tren a Yogyakarta</text><rect x="460" y="1670" width="200" height="40" style="fill:white;stroke:black;stroke-width:1" /><text x="470" y="1680" font-size="10" style="fill:blue">inicio</text><path d="M440 1640 C460 1640 440 1690 460 1690" style="fill:transparent;stroke:black" /><rect x="680" y="1670" width="200" height="40" style="fill:white;stroke:black;stroke-width:1" /><text x="690" y="1680" font-size="10" style="fill:blue">lugar</text><path d="M660 1690 C680 1690 660 1690 680 1690" style="fill:transparent;stroke:black" /><rect x="746" y="1670" width="137" height="40" style="fill:green;stroke:black;stroke-width:1" /><text x="756" y="1680" font-size="8" style="fill:white">Estación de Tren Yogyakarta</text><rect x="680" y="1720" width="200" height="40" style="fill:white;stroke:black;stroke-width:1" /><text x="690" y="1730" font-size="10" style="fill:blue">direccion</text><path d="M660 1690 C680 1690 660 1740 680 1740" style="fill:transparent;stroke:black" /><text x="690" y="1740" font-size="8" style="fill:black">dir: Estación de Tren Yogyakarta (Stasiun Tugu Yogyakarta) Jl. Mangkubumi No.1, Sosromenduran, Gedong Tengen Yogyakarta, Indonesia</text><rect x="900" y="1720" width="200" height="40" style="fill:white;stroke:black;stroke-width:1" /><text x="910" y="1730" font-size="10" style="fill:blue">coordenadas</text><path d="M880 1740 C900 1740 880 1740 900 1740" style="fill:transparent;stroke:black" /><rect x="966" y="1720" width="137" height="40" style="fill:green;stroke:black;stroke-width:1" /><text x="976" y="1730" font-size="8" style="fill:white">-7.801194, 110.364917</text><rect x="460" y="1870" width="200" height="40" style="fill:white;stroke:black;stroke-width:1" /><text x="470" y="1880" font-size="10" style="fill:blue">agencia</text><path d="M440 1640 C460 1640 440 1890 460 1890" style="fill:transparent;stroke:black" /><rect x="526" y="1870" width="137" height="40" style="fill:green;stroke:black;stroke-width:1" /><text x="536" y="1880" font-size="8" style="fill:white">Java Explora</text><rect x="460" y="1920" width="200" height="40" style="fill:white;stroke:black;stroke-width:1" /><text x="470" y="1930" font-size="10" style="fill:blue">descripcion</text><path d="M440 1640 C460 1640 440 1940 460 1940" style="fill:transparent;stroke:black" /><rect x="526" y="1920" width="137" height="40" style="fill:green;stroke:black;stroke-width:1" /><text x="536" y="1930" font-size="8" style="fill:white">Una emocionante aventura de 7 días explorando la isla de Java.</text><rect x="460" y="1970" width="200" height="40" style="fill:white;stroke:black;stroke-width:1" /><text x="470" y="1980" font-size="10" style="fill:blue">personas_adecuadas</text><path d="M440 1640 C460 1640 440 1990 460 1990" style="fill:transparent;stroke:black" /><rect x="680" y="1970" width="200" height="40" style="fill:white;stroke:black;stroke-width:1" /><text x="690" y="1980" font-size="10" style="fill:blue">persona</text><path d="M660 1990 C680 1990 660 1990 680 1990" style="fill:transparent;stroke:black" /><rect x="746" y="1970" width="137" height="40" style="fill:green;stroke:black;stroke-width:1" /><text x="756" y="1980" font-size="8" style="fill:white">Debido a la complejidad de la ruta, no se puede estimar personas adecuadas</text><rect x="460" y="2070" width="200" height="40" style="fill:white;stroke:black;stroke-width:1" /><text x="470" y="2080" font-size="10" style="fill:blue">referencias</text><path d="M440 1640 C460 1640 440 2090 460 2090" style="fill:transparent;stroke:black" /><rect x="680" y="2070" width="200" height="40" style="fill:white;stroke:black;stroke-width:1" /><text x="690" y="2080" font-size="10" style="fill:blue">referencia</text><path d="M660 2090 C680 2090 660 2090 680 2090" style="fill:transparent;stroke:black" /><text x="690" y="2090" font-size="8" style="fill:black">link: https://www.indonesia.travel/sg/en/destinations/java</text><rect x="680" y="2120" width="200" height="40" style="fill:white;stroke:black;stroke-width:1" /><text x="690" y="2130" font-size="10" style="fill:blue">referencia</text><path d="M660 2090 C680 2090 660 2140 680 2140" style="fill:transparent;stroke:black" /><text x="690" y="2140" font-size="8" style="fill:black">link: https://www.borobudurpark.com</text><rect x="680" y="2170" width="200" height="40" style="fill:white;stroke:black;stroke-width:1" /><text x="690" y="2180" font-size="10" style="fill:blue">referencia</text><path d="M660 2090 C680 2090 660 2190 680 2190" style="fill:transparent;stroke:black" /><text x="690" y="2190" font-size="8" style="fill:black">link: https://es.wikipedia.org/wiki/Monte_Bromo</text><rect x="460" y="2270" width="200" height="40" style="fill:white;stroke:black;stroke-width:1" /><text x="470" y="2280" font-size="10" style="fill:blue">recomendacion</text><path d="M440 1640 C460 1640 440 2290 460 2290" style="fill:transparent;stroke:black" /><rect x="526" y="2270" width="137" height="40" style="fill:green;stroke:black;stroke-width:1" /><text x="536" y="2280" font-size="8" style="fill:white">8</text><rect x="460" y="2320" width="200" height="40" style="fill:white;stroke:black;stroke-width:1" /><text x="470" y="2330" font-size="10" style="fill:blue">hitos</text><path d="M440 1640 C460 1640 440 2340 460 2340" style="fill:transparent;stroke:black" /><rect x="680" y="2320" width="200" height="40" style="fill:white;stroke:black;stroke-width:1" /><text x="690" y="2330" font-size="10" style="fill:blue">hito</text><path d="M660 2340 C680 2340 660 2340 680 2340" style="fill:transparent;stroke:black" /><text x="690" y="2340" font-size="8" style="fill:black">nombre: Templo de Borobudur</text><rect x="900" y="2320" width="200" height="40" style="fill:white;stroke:black;stroke-width:1" /><text x="910" y="2330" font-size="10" style="fill:blue">descripcion</text><path d="M880 2340 C900 2340 880 2340 900 2340" style="fill:transparent;stroke:black" /><rect x="966" y="2320" width="137" height="40" style="fill:green;stroke:black;stroke-width:1" /><text x="976" y="2330" font-size="8" style="fill:white">El templo budista más grande del mundo.</text><rect x="900" y="2370" width="200" height="40" style="fill:white;stroke:black;stroke-width:1" /><text x="910" y="2380" font-size="10" style="fill:blue">coordenadas</text><path d="M880 2340 C900 2340 880 2390 900 2390" style="fill:transparent;stroke:black" /><rect x="966" y="2370" width="137" height="40" style="fill:green;stroke:black;stroke-width:1" /><text x="976" y="2380" font-size="8" style="fill:white">-7.607874, 110.203751</text><rect x="900" y="2420" width="200" height="40" style="fill:white;stroke:black;stroke-width:1" /><text x="910" y="2430" font-size="10" style="fill:blue">distancia</text><path d="M880 2340 C900 2340 880 2440 900 2440" style="fill:transparent;stroke:black" /><rect x="966" y="2420" width="137" height="40" style="fill:green;stroke:black;stroke-width:1" /><text x="976" y="2430" font-size="8" style="fill:white">40.0</text><rect x="900" y="2470" width="200" height="40" style="fill:white;stroke:black;stroke-width:1" /><text x="910" y="2480" font-size="10" style="fill:blue">fotos</text><path d="M880 2340 C900 2340 880 2490 900 2490" style="fill:transparent;stroke:black" /><rect x="1120" y="2470" width="200" height="40" style="fill:white;stroke:black;stroke-width:1" /><text x="1130" y="2480" font-size="10" style="fill:blue">foto</text><path d="M1100 2490 C1120 2490 1100 2490 1120 2490" style="fill:transparent;stroke:black" /><text x="1130" y="2490" font-size="8" style="fill:black">ref: borobudur1.jpg</text><rect x="1120" y="2520" width="200" height="40" style="fill:white;stroke:black;stroke-width:1" /><text x="1130" y="2530" font-size="10" style="fill:blue">foto</text><path d="M1100 2490 C1120 2490 1100 2540 1120 2540" style="fill:transparent;stroke:black" /><text x="1130" y="2540" font-size="8" style="fill:black">ref: borobudur2.jpg</text><rect x="900" y="2620" width="200" height="40" style="fill:white;stroke:black;stroke-width:1" /><text x="910" y="2630" font-size="10" style="fill:blue">videos</text><path d="M880 2340 C900 2340 880 2640 900 2640" style="fill:transparent;stroke:black" /><rect x="1120" y="2620" width="200" height="40" style="fill:white;stroke:black;stroke-width:1" /><text x="1130" y="2630" font-size="10" style="fill:blue">video</text><path d="M1100 2640 C1120 2640 1100 2640 1120 2640" style="fill:transparent;stroke:black" /><text x="1130" y="2640" font-size="8" style="fill:black">ref: borobudur_video.mp4</text><rect x="680" y="2770" width="200" height="40" style="fill:white;stroke:black;stroke-width:1" /><text x="690" y="2780" font-size="10" style="fill:blue">hito</text><path d="M660 2340 C680 2340 660 2790 680 2790" style="fill:transparent;stroke:black" /><text x="690" y="2790" font-size="8" style="fill:black">nombre: Monte Bromo</text><rect x="900" y="2770" width="200" height="40" style="fill:white;stroke:black;stroke-width:1" /><text x="910" y="2780" font-size="10" style="fill:blue">descripcion</text><path d="M880 2790 C900 2790 880 2790 900 2790" style="fill:transparent;stroke:black" /><rect x="966" y="2770" width="137" height="40" style="fill:green;stroke:black;stroke-width:1" /><text x="976" y="2780" font-size="8" style="fill:white">Volcán activo con vistas impresionantes al amanecer.</text><rect x="900" y="2820" width="200" height="40" style="fill:white;stroke:black;stroke-width:1" /><text x="910" y="2830" font-size="10" style="fill:blue">coordenadas</text><path d="M880 2790 C900 2790 880 2840 900 2840" style="fill:transparent;stroke:black" /><rect x="966" y="2820" width="137" height="40" style="fill:green;stroke:black;stroke-width:1" /><text x="976" y="2830" font-size="8" style="fill:white">-7.942814, 112.953637</text><rect x="900" y="2870" width="200" height="40" style="fill:white;stroke:black;stroke-width:1" /><text x="910" y="2880" font-size="10" style="fill:blue">distancia</text><path d="M880 2790 C900 2790 880 2890 900 2890" style="fill:transparent;stroke:black" /><rect x="966" y="2870" width="137" height="40" style="fill:green;stroke:black;stroke-width:1" /><text x="976" y="2880" font-size="8" style="fill:white">120.0</text><rect x="900" y="2920" width="200" height="40" style="fill:white;stroke:black;stroke-width:1" /><text x="910" y="2930" font-size="10" style="fill:blue">fotos</text><path d="M880 2790 C900 2790 880 2940 900 2940" style="fill:transparent;stroke:black" /><rect x="1120" y="2920" width="200" height="40" style="fill:white;stroke:black;stroke-width:1" /><text x="1130" y="2930" font-size="10" style="fill:blue">foto</text><path d="M1100 2940 C1120 2940 1100 2940 1120 2940" style="fill:transparent;stroke:black" /><text x="1130" y="2940" font-size="8" style="fill:black">ref: bromo1.jpg</text><rect x="1120" y="2970" width="200" height="40" style="fill:white;stroke:black;stroke-width:1" /><text x="1130" y="2980" font-size="10" style="fill:blue">foto</text><path d="M1100 2940 C1120 2940 1100 2990 1120 2990" style="fill:transparent;stroke:black" /><text x="1130" y="2990" font-size="8" style="fill:black">ref: bromo2.jpg</text><rect x="900" y="3070" width="200" height="40" style="fill:white;stroke:black;stroke-width:1" /><text x="910" y="3080" font-size="10" style="fill:blue">videos</text><path d="M880 2790 C900 2790 880 3090 900 3090" style="fill:transparent;stroke:black" /><rect x="1120" y="3070" width="200" height="40" style="fill:white;stroke:black;stroke-width:1" /><text x="1130" y="3080" font-size="10" style="fill:blue">video</text><path d="M1100 3090 C1120 3090 1100 3090 1120 3090" style="fill:transparent;stroke:black" /><text x="1130" y="3090" font-size="8" style="fill:black">ref: bromo_video.mp4</text><rect x="680" y="3220" width="200" height="40" style="fill:white;stroke:black;stroke-width:1" /><text x="690" y="3230" font-size="10" style="fill:blue">hito</text><path d="M660 2340 C680 2340 660 3240 680 3240" style="fill:transparent;stroke:black" /><text x="690" y="3240" font-size="8" style="fill:black">nombre: Palacio del Sultán, Yogyakarta</text><rect x="900" y="3220" width="200" height="40" style="fill:white;stroke:black;stroke-width:1" /><text x="910" y="3230" font-size="10" style="fill:blue">descripcion</text><path d="M880 3240 C900 3240 880 3240 900 3240" style="fill:transparent;stroke:black" /><rect x="966" y="3220" width="137" height="40" style="fill:green;stroke:black;stroke-width:1" /><text x="976" y="3230" font-size="8" style="fill:white">El Palacio del Sultán, también conocido como Kraton Ngayogyakarta Hadiningrat, es la residencia del sultán y un importante centro cultural en Yogyakarta.</text><rect x="900" y="3270" width="200" height="40" style="fill:white;stroke:black;stroke-width:1" /><text x="910" y="3280" font-size="10" style="fill:blue">coordenadas</text><path d="M880 3240 C900 3240 880 3290 900 3290" style="fill:transparent;stroke:black" /><rect x="966" y="3270" width="137" height="40" style="fill:green;stroke:black;stroke-width:1" /><text x="976" y="3280" font-size="8" style="fill:white">-7.808848, 110.364071</text><rect x="900" y="3320" width="200" height="40" style="fill:white;stroke:black;stroke-width:1" /><text x="910" y="3330" font-size="10" style="fill:blue">distancia</text><path d="M880 3240 C900 3240 880 3340 900 3340" style="fill:transparent;stroke:black" /><rect x="966" y="3320" width="137" height="40" style="fill:green;stroke:black;stroke-width:1" /><text x="976" y="3330" font-size="8" style="fill:white">2.0</text><rect x="900" y="3370" width="200" height="40" style="fill:white;stroke:black;stroke-width:1" /><text x="910" y="3380" font-size="10" style="fill:blue">fotos</text><path d="M880 3240 C900 3240 880 3390 900 3390" style="fill:transparent;stroke:black" /><rect x="1120" y="3370" width="200" height="40" style="fill:white;stroke:black;stroke-width:1" /><text x="1130" y="3380" font-size="10" style="fill:blue">foto</text><path d="M1100 3390 C1120 3390 1100 3390 1120 3390" style="fill:transparent;stroke:black" /><text x="1130" y="3390" font-size="8" style="fill:black">ref: sultan_palace1.jpg</text><rect x="1120" y="3420" width="200" height="40" style="fill:white;stroke:black;stroke-width:1" /><text x="1130" y="3430" font-size="10" style="fill:blue">foto</text><path d="M1100 3390 C1120 3390 1100 3440 1120 3440" style="fill:transparent;stroke:black" /><text x="1130" y="3440" font-size="8" style="fill:black">ref: sultan_palace2.jpg</text><rect x="900" y="3520" width="200" height="40" style="fill:white;stroke:black;stroke-width:1" /><text x="910" y="3530" font-size="10" style="fill:blue">videos</text><path d="M880 3240 C900 3240 880 3540 900 3540" style="fill:transparent;stroke:black" /><rect x="1120" y="3520" width="200" height="40" style="fill:white;stroke:black;stroke-width:1" /><text x="1130" y="3530" font-size="10" style="fill:blue">video</text><path d="M1100 3540 C1120 3540 1100 3540 1120 3540" style="fill:transparent;stroke:black" /><text x="1130" y="3540" font-size="8" style="fill:black">ref: sultan_palace_video.mp4</text><rect x="240" y="3770" width="200" height="40" style="fill:white;stroke:black;stroke-width:1" /><text x="250" y="3780" font-size="10" style="fill:blue">ruta</text><path d="M220 40 C240 40 220 3790 240 3790" style="fill:transparent;stroke:black" /><text x="250" y="3790" font-size="8" style="fill:black">nombre: Ruta Cultural en Yogyakarta</text><text x="250" y="3800" font-size="8" style="fill:black">tipo: Cultural</text><text x="250" y="3810" font-size="8" style="fill:black">duracion: P4D</text><rect x="460" y="3770" width="200" height="40" style="fill:white;stroke:black;stroke-width:1" /><text x="470" y="3780" font-size="10" style="fill:blue">transporte</text><path d="M440 3790 C460 3790 440 3790 460 3790" style="fill:transparent;stroke:black" /><text x="470" y="3790" font-size="8" style="fill:black">medio: A pie</text><rect x="526" y="3770" width="137" height="40" style="fill:green;stroke:black;stroke-width:1" /><text x="536" y="3780" font-size="8" style="fill:white">Vuelo internacional a Yogyakarta</text><rect x="460" y="3820" width="200" height="40" style="fill:white;stroke:black;stroke-width:1" /><text x="470" y="3830" font-size="10" style="fill:blue">inicio</text><path d="M440 3790 C460 3790 440 3840 460 3840" style="fill:transparent;stroke:black" /><rect x="680" y="3820" width="200" height="40" style="fill:white;stroke:black;stroke-width:1" /><text x="690" y="3830" font-size="10" style="fill:blue">lugar</text><path d="M660 3840 C680 3840 660 3840 680 3840" style="fill:transparent;stroke:black" /><rect x="746" y="3820" width="137" height="40" style="fill:green;stroke:black;stroke-width:1" /><text x="756" y="3830" font-size="8" style="fill:white">Templo Prambanan</text><rect x="680" y="3870" width="200" height="40" style="fill:white;stroke:black;stroke-width:1" /><text x="690" y="3880" font-size="10" style="fill:blue">direccion</text><path d="M660 3840 C680 3840 660 3890 680 3890" style="fill:transparent;stroke:black" /><text x="690" y="3890" font-size="8" style="fill:black">dir: Templo de Prambanan Jl. Raya Solo - Yogyakarta, Kranggan, Bokoharjo Kabupaten Sleman, Daerah Istimewa Yogyakarta, Indonesia</text><rect x="900" y="3870" width="200" height="40" style="fill:white;stroke:black;stroke-width:1" /><text x="910" y="3880" font-size="10" style="fill:blue">coordenadas</text><path d="M880 3890 C900 3890 880 3890 900 3890" style="fill:transparent;stroke:black" /><rect x="966" y="3870" width="137" height="40" style="fill:green;stroke:black;stroke-width:1" /><text x="976" y="3880" font-size="8" style="fill:white">-7.752020, 110.491074</text><rect x="460" y="4020" width="200" height="40" style="fill:white;stroke:black;stroke-width:1" /><text x="470" y="4030" font-size="10" style="fill:blue">agencia</text><path d="M440 3790 C460 3790 440 4040 460 4040" style="fill:transparent;stroke:black" /><rect x="526" y="4020" width="137" height="40" style="fill:green;stroke:black;stroke-width:1" /><text x="536" y="4030" font-size="8" style="fill:white">Descubre Yogyakarta Tours</text><rect x="460" y="4070" width="200" height="40" style="fill:white;stroke:black;stroke-width:1" /><text x="470" y="4080" font-size="10" style="fill:blue">descripcion</text><path d="M440 3790 C460 3790 440 4090 460 4090" style="fill:transparent;stroke:black" /><rect x="526" y="4070" width="137" height="40" style="fill:green;stroke:black;stroke-width:1" /><text x="536" y="4080" font-size="8" style="fill:white">Un viaje cultural de 4 días explorando la rica herencia de Yogyakarta.</text><rect x="460" y="4120" width="200" height="40" style="fill:white;stroke:black;stroke-width:1" /><text x="470" y="4130" font-size="10" style="fill:blue">personas_adecuadas</text><path d="M440 3790 C460 3790 440 4140 460 4140" style="fill:transparent;stroke:black" /><rect x="680" y="4120" width="200" height="40" style="fill:white;stroke:black;stroke-width:1" /><text x="690" y="4130" font-size="10" style="fill:blue">persona</text><path d="M660 4140 C680 4140 660 4140 680 4140" style="fill:transparent;stroke:black" /><rect x="746" y="4120" width="137" height="40" style="fill:green;stroke:black;stroke-width:1" /><text x="756" y="4130" font-size="8" style="fill:white">Amantes de la historia</text><rect x="680" y="4170" width="200" height="40" style="fill:white;stroke:black;stroke-width:1" /><text x="690" y="4180" font-size="10" style="fill:blue">persona</text><path d="M660 4140 C680 4140 660 4190 680 4190" style="fill:transparent;stroke:black" /><rect x="746" y="4170" width="137" height="40" style="fill:green;stroke:black;stroke-width:1" /><text x="756" y="4180" font-size="8" style="fill:white">Entusiastas de la arquitectura</text><rect x="460" y="4270" width="200" height="40" style="fill:white;stroke:black;stroke-width:1" /><text x="470" y="4280" font-size="10" style="fill:blue">referencias</text><path d="M440 3790 C460 3790 440 4290 460 4290" style="fill:transparent;stroke:black" /><rect x="680" y="4270" width="200" height="40" style="fill:white;stroke:black;stroke-width:1" /><text x="690" y="4280" font-size="10" style="fill:blue">referencia</text><path d="M660 4290 C680 4290 660 4290 680 4290" style="fill:transparent;stroke:black" /><text x="690" y="4290" font-size="8" style="fill:black">link: https://www.descubreyogyakarta.com</text><rect x="746" y="4270" width="137" height="40" style="fill:green;stroke:black;stroke-width:1" /><text x="756" y="4280" font-size="8" style="fill:white">Sitio web de la agencia</text><rect x="460" y="4370" width="200" height="40" style="fill:white;stroke:black;stroke-width:1" /><text x="470" y="4380" font-size="10" style="fill:blue">recomendacion</text><path d="M440 3790 C460 3790 440 4390 460 4390" style="fill:transparent;stroke:black" /><rect x="526" y="4370" width="137" height="40" style="fill:green;stroke:black;stroke-width:1" /><text x="536" y="4380" font-size="8" style="fill:white">6</text><rect x="460" y="4420" width="200" height="40" style="fill:white;stroke:black;stroke-width:1" /><text x="470" y="4430" font-size="10" style="fill:blue">hitos</text><path d="M440 3790 C460 3790 440 4440 460 4440" style="fill:transparent;stroke:black" /><rect x="680" y="4420" width="200" height="40" style="fill:white;stroke:black;stroke-width:1" /><text x="690" y="4430" font-size="10" style="fill:blue">hito</text><path d="M660 4440 C680 4440 660 4440 680 4440" style="fill:transparent;stroke:black" /><text x="690" y="4440" font-size="8" style="fill:black">nombre: Templo Prambanan</text><rect x="900" y="4420" width="200" height="40" style="fill:white;stroke:black;stroke-width:1" /><text x="910" y="4430" font-size="10" style="fill:blue">descripcion</text><path d="M880 4440 C900 4440 880 4440 900 4440" style="fill:transparent;stroke:black" /><rect x="966" y="4420" width="137" height="40" style="fill:green;stroke:black;stroke-width:1" /><text x="976" y="4430" font-size="8" style="fill:white">El impresionante templo hindú de Prambanan, un sitio de Patrimonio Mundial de la UNESCO.</text><rect x="900" y="4470" width="200" height="40" style="fill:white;stroke:black;stroke-width:1" /><text x="910" y="4480" font-size="10" style="fill:blue">coordenadas</text><path d="M880 4440 C900 4440 880 4490 900 4490" style="fill:transparent;stroke:black" /><rect x="966" y="4470" width="137" height="40" style="fill:green;stroke:black;stroke-width:1" /><text x="976" y="4480" font-size="8" style="fill:white">-7.752020, 110.491074</text><rect x="900" y="4520" width="200" height="40" style="fill:white;stroke:black;stroke-width:1" /><text x="910" y="4530" font-size="10" style="fill:blue">distancia</text><path d="M880 4440 C900 4440 880 4540 900 4540" style="fill:transparent;stroke:black" /><rect x="966" y="4520" width="137" height="40" style="fill:green;stroke:black;stroke-width:1" /><text x="976" y="4530" font-size="8" style="fill:white">17.0</text><rect x="900" y="4570" width="200" height="40" style="fill:white;stroke:black;stroke-width:1" /><text x="910" y="4580" font-size="10" style="fill:blue">fotos</text><path d="M880 4440 C900 4440 880 4590 900 4590" style="fill:transparent;stroke:black" /><rect x="1120" y="4570" width="200" height="40" style="fill:white;stroke:black;stroke-width:1" /><text x="1130" y="4580" font-size="10" style="fill:blue">foto</text><path d="M1100 4590 C1120 4590 1100 4590 1120 4590" style="fill:transparent;stroke:black" /><text x="1130" y="4590" font-size="8" style="fill:black">ref: prambanan1.jpg</text><rect x="1120" y="4620" width="200" height="40" style="fill:white;stroke:black;stroke-width:1" /><text x="1130" y="4630" font-size="10" style="fill:blue">foto</text><path d="M1100 4590 C1120 4590 1100 4640 1120 4640" style="fill:transparent;stroke:black" /><text x="1130" y="4640" font-size="8" style="fill:black">ref: prambanan2.jpg</text><rect x="900" y="4720" width="200" height="40" style="fill:white;stroke:black;stroke-width:1" /><text x="910" y="4730" font-size="10" style="fill:blue">videos</text><path d="M880 4440 C900 4440 880 4740 900 4740" style="fill:transparent;stroke:black" /><rect x="1120" y="4720" width="200" height="40" style="fill:white;stroke:black;stroke-width:1" /><text x="1130" y="4730" font-size="10" style="fill:blue">video</text><path d="M1100 4740 C1120 4740 1100 4740 1120 4740" style="fill:transparent;stroke:black" /><text x="1130" y="4740" font-size="8" style="fill:black">ref: prambanan_video.mp4</text><rect x="680" y="4870" width="200" height="40" style="fill:white;stroke:black;stroke-width:1" /><text x="690" y="4880" font-size="10" style="fill:blue">hito</text><path d="M660 4440 C680 4440 660 4890 680 4890" style="fill:transparent;stroke:black" /><text x="690" y="4890" font-size="8" style="fill:black">nombre: Palacio del Agua (Taman Sari)</text><rect x="900" y="4870" width="200" height="40" style="fill:white;stroke:black;stroke-width:1" /><text x="910" y="4880" font-size="10" style="fill:blue">descripcion</text><path d="M880 4890 C900 4890 880 4890 900 4890" style="fill:transparent;stroke:black" /><rect x="966" y="4870" width="137" height="40" style="fill:green;stroke:black;stroke-width:1" /><text x="976" y="4880" font-size="8" style="fill:white">El Palacio del Agua, un complejo de baños reales y jardines acuáticos.</text><rect x="900" y="4920" width="200" height="40" style="fill:white;stroke:black;stroke-width:1" /><text x="910" y="4930" font-size="10" style="fill:blue">coordenadas</text><path d="M880 4890 C900 4890 880 4940 900 4940" style="fill:transparent;stroke:black" /><rect x="966" y="4920" width="137" height="40" style="fill:green;stroke:black;stroke-width:1" /><text x="976" y="4930" font-size="8" style="fill:white">-7.808230, 110.359863</text><rect x="900" y="4970" width="200" height="40" style="fill:white;stroke:black;stroke-width:1" /><text x="910" y="4980" font-size="10" style="fill:blue">distancia</text><path d="M880 4890 C900 4890 880 4990 900 4990" style="fill:transparent;stroke:black" /><rect x="966" y="4970" width="137" height="40" style="fill:green;stroke:black;stroke-width:1" /><text x="976" y="4980" font-size="8" style="fill:white">4.0</text><rect x="900" y="5020" width="200" height="40" style="fill:white;stroke:black;stroke-width:1" /><text x="910" y="5030" font-size="10" style="fill:blue">fotos</text><path d="M880 4890 C900 4890 880 5040 900 5040" style="fill:transparent;stroke:black" /><rect x="1120" y="5020" width="200" height="40" style="fill:white;stroke:black;stroke-width:1" /><text x="1130" y="5030" font-size="10" style="fill:blue">foto</text><path d="M1100 5040 C1120 5040 1100 5040 1120 5040" style="fill:transparent;stroke:black" /><text x="1130" y="5040" font-size="8" style="fill:black">ref: taman_sari1.jpg</text><rect x="1120" y="5070" width="200" height="40" style="fill:white;stroke:black;stroke-width:1" /><text x="1130" y="5080" font-size="10" style="fill:blue">foto</text><path d="M1100 5040 C1120 5040 1100 5090 1120 5090" style="fill:transparent;stroke:black" /><text x="1130" y="5090" font-size="8" style="fill:black">ref: taman_sari2.jpg</text><rect x="900" y="5170" width="200" height="40" style="fill:white;stroke:black;stroke-width:1" /><text x="910" y="5180" font-size="10" style="fill:blue">videos</text><path d="M880 4890 C900 4890 880 5190 900 5190" style="fill:transparent;stroke:black" /><rect x="1120" y="5170" width="200" height="40" style="fill:white;stroke:black;stroke-width:1" /><text x="1130" y="5180" font-size="10" style="fill:blue">video</text><path d="M1100 5190 C1120 5190 1100 5190 1120 5190" style="fill:transparent;stroke:black" /><text x="1130" y="5190" font-size="8" style="fill:black">ref: taman_sari_video.mp4</text><rect x="680" y="5320" width="200" height="40" style="fill:white;stroke:black;stroke-width:1" /><text x="690" y="5330" font-size="10" style="fill:blue">hito</text><path d="M660 4440 C680 4440 660 5340 680 5340" style="fill:transparent;stroke:black" /><text x="690" y="5340" font-size="8" style="fill:black">nombre: Museo Sonobudoyo</text><rect x="900" y="5320" width="200" height="40" style="fill:white;stroke:black;stroke-width:1" /><text x="910" y="5330" font-size="10" style="fill:blue">descripcion</text><path d="M880 5340 C900 5340 880 5340 900 5340" style="fill:transparent;stroke:black" /><rect x="966" y="5320" width="137" height="40" style="fill:green;stroke:black;stroke-width:1" /><text x="976" y="5330" font-size="8" style="fill:white">Un museo que alberga una rica colección de arte y cultura javanesa.</text><rect x="900" y="5370" width="200" height="40" style="fill:white;stroke:black;stroke-width:1" /><text x="910" y="5380" font-size="10" style="fill:blue">coordenadas</text><path d="M880 5340 C900 5340 880 5390 900 5390" style="fill:transparent;stroke:black" /><rect x="966" y="5370" width="137" height="40" style="fill:green;stroke:black;stroke-width:1" /><text x="976" y="5380" font-size="8" style="fill:white">-7.801926, 110.364653</text><rect x="900" y="5420" width="200" height="40" style="fill:white;stroke:black;stroke-width:1" /><text x="910" y="5430" font-size="10" style="fill:blue">distancia</text><path d="M880 5340 C900 5340 880 5440 900 5440" style="fill:transparent;stroke:black" /><rect x="966" y="5420" width="137" height="40" style="fill:green;stroke:black;stroke-width:1" /><text x="976" y="5430" font-size="8" style="fill:white">1.0</text><rect x="900" y="5470" width="200" height="40" style="fill:white;stroke:black;stroke-width:1" /><text x="910" y="5480" font-size="10" style="fill:blue">fotos</text><path d="M880 5340 C900 5340 880 5490 900 5490" style="fill:transparent;stroke:black" /><rect x="1120" y="5470" width="200" height="40" style="fill:white;stroke:black;stroke-width:1" /><text x="1130" y="5480" font-size="10" style="fill:blue">foto</text><path d="M1100 5490 C1120 5490 1100 5490 1120 5490" style="fill:transparent;stroke:black" /><text x="1130" y="5490" font-size="8" style="fill:black">ref: sonobudoyo1.jpg</text><rect x="1120" y="5520" width="200" height="40" style="fill:white;stroke:black;stroke-width:1" /><text x="1130" y="5530" font-size="10" style="fill:blue">foto</text><path d="M1100 5490 C1120 5490 1100 5540 1120 5540" style="fill:transparent;stroke:black" /><text x="1130" y="5540" font-size="8" style="fill:black">ref: sonobudoyo2.jpg</text><rect x="900" y="5620" width="200" height="40" style="fill:white;stroke:black;stroke-width:1" /><text x="910" y="5630" font-size="10" style="fill:blue">videos</text><path d="M880 5340 C900 5340 880 5640 900 5640" style="fill:transparent;stroke:black" /><rect x="1120" y="5620" width="200" height="40" style="fill:white;stroke:black;stroke-width:1" /><text x="1130" y="5630" font-size="10" style="fill:blue">video</text><path d="M1100 5640 C1120 5640 1100 5640 1120 5640" style="fill:transparent;stroke:black" /><text x="1130" y="5640" font-size="8" style="fill:black">ref: sonobudoyo_video.mp4</text></svg>